#!OML:ASF X:\für Bonn\!DataBase\2005_08_11_Bastian_Final\c3d\Bastian.ASF
:FULLY-SPECIFIED
:DEGREES
35
root 1.06602 22.6181 7.88035 539.747 -185.029 -182.277
lowerback 5.81861 -4.12257 -1.75687
upperback 3.1617 -5.56928 -0.395603
thorax 0.133254 -2.80204 0.87678
lowerneck -4.52003 -1.77506 -0.556484
upperneck -3.67455 -2.22179 8.31655
head -0.269569 -1.11553 2.70267
rclavicle -3.47873e-015 -1.03368e-014
rhumerus -46.1138 33.2035 -91.8549
rradius 112.06
rwrist 6.1844
rhand -15.786 21.8216
rfingers 7.12502
rthumb 10.4066 -7.90084
lclavicle -3.47873e-015 -1.03368e-014
lhumerus -36.1315 -15.1096 78.438
lradius 127.161
lwrist -141.238
lhand -29.3244 12.6705
lfingers 7.12502
lthumb -2.66498 42.6336
rfemur -18.135 -7.6582 25.0444
rtibia 75.1121
rfoot 16.997 -3.9893
rtoes -1.2834
lfemur -21.7527 4.8917 -12.9272
ltibia 74.5693
lfoot 18.152 -2.20436
ltoes -27.1862
36
root 1.05962 22.7233 8.0305 539.604 -184.788 -182.256
lowerback 6.92857 -4.03394 -1.82899
upperback 3.50667 -5.47065 -0.414509
thorax -0.122121 -2.75247 0.963605
lowerneck -4.56731 -1.76794 -0.487118
upperneck -4.0796 -2.18723 8.41751
head -0.390528 -1.10997 2.72744
rclavicle -4.14466e-014 -1.27222e-014
rhumerus -45.3416 32.9725 -91.8033
rradius 110.474
rwrist 5.54369
rhand -15.7901 21.9648
rfingers 7.12502
rthumb 10.4027 -7.75785
lclavicle -4.14466e-014 -1.27222e-014
lhumerus -36.0982 -15.1418 79.2423
lradius 126.304
lwrist -142.2
lhand -29.412 12.499
lfingers 7.12502
lthumb -2.74963 42.4611
rfemur -19.5662 -8.14862 25.0173
rtibia 76.7981
rfoot 16.6251 -3.55027
rtoes 1.28619
lfemur -22.6435 5.12693 -13.2241
ltibia 75.1334
lfoot 17.8854 -2.09951
ltoes -25.9088
37
root 1.05432 22.8167 8.18595 539.464 -184.53 -182.11
lowerback 7.97856 -3.92374 -2.04658
upperback 3.8195 -5.35424 -0.442334
thorax -0.363005 -2.6954 1.11408
lowerneck -4.46026 -1.76879 -0.380341
upperneck -4.54786 -2.15908 8.3851
head -0.55973 -1.11331 2.70309
rclavicle 4.13472e-014 -7.95139e-016
rhumerus -44.6859 32.6804 -91.8094
rradius 108.629
rwrist 4.93017
rhand -15.1964 21.3386
rfingers 7.12502
rthumb 10.9753 -8.35453
lclavicle 4.13472e-014 -7.95139e-016
lhumerus -36.0927 -15.1099 80.1067
lradius 125.338
lwrist -143.312
lhand -29.5441 11.8342
lfingers 7.12502
lthumb -2.87716 41.7945
rfemur -20.9017 -8.62038 24.8553
rtibia 78.2107
rfoot 16.0117 -2.89254
rtoes 2.27602
lfemur -23.3668 5.32106 -13.6722
ltibia 75.3489
lfoot 17.5467 -2.25244
ltoes -25.4501
38
root 1.05021 22.8989 8.34716 539.406 -184.263 -181.866
lowerback 8.84043 -3.79659 -2.31271
upperback 4.13345 -5.21974 -0.525567
thorax -0.499149 -2.63063 1.21587
lowerneck -4.39266 -1.78039 -0.0599642
upperneck -4.97503 -2.16175 8.14613
head -0.712371 -1.13277 2.5702
rclavicle -8.34896e-015 7.95139e-016
rhumerus -43.9306 32.2092 -91.813
rradius 106.514
rwrist 4.28258
rhand -14.3843 20.499
rfingers 7.12502
rthumb 11.7586 -9.15095
lclavicle -8.34896e-015 7.95139e-016
lhumerus -36.0327 -15.0259 80.9308
lradius 124.086
lwrist -144.336
lhand -29.7448 11.174
lfingers 7.12502
lthumb -3.07097 41.1316
rfemur -22.2383 -9.00449 24.6033
rtibia 79.3392
rfoot 15.2722 -2.16895
rtoes 2.2863
lfemur -24.0247 5.45841 -14.2457
ltibia 75.2415
lfoot 17.3736 -2.57105
ltoes -25.2136
39
root 1.04601 22.9699 8.51475 539.423 -183.985 -181.584
lowerback 9.55082 -3.66034 -2.65139
upperback 4.40379 -5.08041 -0.590153
thorax -0.588288 -2.56516 1.36451
lowerneck -4.2767 -1.79424 -0.0290172
upperneck -5.28584 -2.1568 8.1905
head -0.830625 -1.14287 2.58477
rclavicle 2.22639e-014 -1.51076e-014
rhumerus -43.1293 31.6809 -91.7529
rradius 103.857
rwrist 4.12794
rhand -14.2429 20.1641
rfingers 7.12502
rthumb 11.8949 -9.47805
lclavicle 2.22639e-014 -1.51076e-014
lhumerus -35.9777 -14.8171 81.7453
lradius 122.515
lwrist -145.2
lhand -29.9801 10.2525
lfingers 7.12502
lthumb -3.29827 40.2067
rfemur -23.5909 -9.3753 24.3371
rtibia 80.1623
rfoot 14.5997 -1.29325
rtoes 1.16099
lfemur -24.6089 5.55343 -14.8561
ltibia 74.8305
lfoot 17.0869 -3.02036
ltoes -25.1681
40
root 1.04284 23.025 8.68425 539.523 -183.703 -181.388
lowerback 10.1267 -3.52596 -2.8723
upperback 4.63562 -4.93408 -0.6437
thorax -0.653338 -2.49511 1.44892
lowerneck -4.12693 -1.80613 0.11061
upperneck -5.60862 -2.15372 8.13311
head -0.960728 -1.1564 2.54668
rclavicle -3.35946e-014 8.74653e-015
rhumerus -42.3383 30.9598 -91.7331
rradius 100.706
rwrist 4.45244
rhand -14.543 20.2289
rfingers 7.12502
rthumb 11.6055 -9.42977
lclavicle -3.35946e-014 8.74653e-015
lhumerus -35.9282 -14.6008 82.5225
lradius 120.585
lwrist -146.117
lhand -30.0689 9.38955
lfingers 7.12502
lthumb -3.384 39.3424
rfemur -24.9784 -9.68774 24.201
rtibia 80.6697
rfoot 14.0618 -0.41115
rtoes -0.312358
lfemur -25.1814 5.64013 -15.3722
ltibia 74.141
lfoot 16.6245 -3.73703
ltoes -26.0877
41
root 1.04104 23.0635 8.85735 539.557 -183.402 -181.446
lowerback 10.691 -3.39699 -2.82417
upperback 4.89433 -4.76986 -0.632774
thorax -0.701854 -2.41391 1.44536
lowerneck -3.98718 -1.82343 0.251988
upperneck -5.97117 -2.15503 8.08281
head -1.10173 -1.17335 2.51166
rclavicle -2.72335e-014 -7.95139e-016
rhumerus -41.5219 30.2256 -91.6953
rradius 97.3187
rwrist 4.26489
rhand -14.7722 20.4498
rfingers 7.12502
rthumb 11.3845 -9.22116
lclavicle -2.72335e-014 -7.95139e-016
lhumerus -35.793 -14.2694 83.2546
lradius 118.395
lwrist -146.99
lhand -30.0864 8.67486
lfingers 7.12502
lthumb -3.40085 38.6275
rfemur -26.1422 -9.91495 24.3477
rtibia 80.8363
rfoot 13.5999 0.385487
rtoes -1.02424
lfemur -25.5908 5.71926 -15.5676
ltibia 73.1981
lfoot 16.2143 -4.47824
ltoes -27.1256
42
root 1.03901 23.0938 9.03525 539.48 -183.113 -181.823
lowerback 11.3276 -3.28776 -2.43811
upperback 5.14784 -4.59848 -0.557841
thorax -0.816144 -2.32379 1.32277
lowerneck -3.74943 -1.83455 0.223193
upperneck -6.33896 -2.12948 8.30996
head -1.25914 -1.17874 2.60236
rclavicle 2.44505e-014 -4.77083e-015
rhumerus -40.7935 29.4002 -91.7971
rradius 93.6346
rwrist 3.75606
rhand -14.9861 20.7978
rfingers 7.12502
rthumb 11.1781 -8.88448
lclavicle 2.44505e-014 -4.77083e-015
lhumerus -35.6755 -13.857 83.8914
lradius 115.872
lwrist -147.776
lhand -29.9762 8.53056
lfingers 7.12502
lthumb -3.29451 38.4849
rfemur -27.0184 -10.1042 24.8557
rtibia 80.6759
rfoot 13.1651 1.04328
rtoes -1.77341
lfemur -25.7475 5.8326 -15.3671
ltibia 71.9962
lfoot 15.7847 -5.35351
ltoes -28.4512
43
root 1.0369 23.1178 9.21778 539.38 -182.832 -182.359
lowerback 11.9561 -3.19681 -1.87883
upperback 5.39878 -4.42731 -0.449475
thorax -0.936097 -2.23126 1.13517
lowerneck -3.62086 -1.83619 0.0512548
upperneck -6.58339 -2.09027 8.73451
head -1.35713 -1.1711 2.78292
rclavicle -2.5842e-015 -1.27222e-014
rhumerus -40.0216 28.5312 -91.8864
rradius 89.7787
rwrist 3.66291
rhand -15.3802 20.9847
rfingers 7.12502
rthumb 10.7981 -8.71774
lclavicle -2.5842e-015 -1.27222e-014
lhumerus -35.5153 -13.3135 84.4249
lradius 113.215
lwrist -148.629
lhand -29.8784 8.49777
lfingers 7.12502
lthumb -3.19998 38.4535
rfemur -27.73 -10.2639 25.5441
rtibia 80.2412
rfoot 12.696 1.63311
rtoes -2.64511
lfemur -25.7586 5.93715 -14.9523
ltibia 70.5748
lfoot 15.3554 -6.25813
ltoes -29.9896
44
root 1.03594 23.1275 9.40454 539.365 -182.568 -182.858
lowerback 12.4834 -3.1246 -1.35416
upperback 5.59397 -4.27729 -0.32817
thorax -1.05116 -2.14946 0.975688
lowerneck -3.52111 -1.84939 -0.0573175
upperneck -6.76554 -2.07863 9.0061
head -1.43104 -1.17459 2.89986
rclavicle 5.40694e-014 -1.98785e-014
rhumerus -39.2777 27.6393 -91.9725
rradius 85.9587
rwrist 3.7631
rhand -15.5848 20.6488
rfingers 7.12502
rthumb 10.6007 -9.06379
lclavicle 5.40694e-014 -1.98785e-014
lhumerus -35.4307 -12.6568 84.8996
lradius 110.527
lwrist -149.73
lhand -29.705 8.60987
lfingers 7.12502
lthumb -3.03254 38.5681
rfemur -28.469 -10.4084 26.1936
rtibia 79.6557
rfoot 12.2365 2.07749
rtoes -3.68883
lfemur -25.7754 5.97794 -14.5832
ltibia 68.963
lfoot 15.0179 -7.04683
ltoes -31.4357
45
root 1.03451 23.1251 9.59421 539.38 -182.306 -183.262
lowerback 12.991 -3.03384 -0.915585
upperback 5.76503 -4.10834 -0.243218
thorax -1.17431 -2.05881 0.821433
lowerneck -3.61752 -1.89055 -0.0552937
upperneck -6.78985 -2.12805 9.17441
head -1.41849 -1.20047 2.95555
rclavicle -1.0138e-014 -1.59028e-015
rhumerus -38.5483 26.6873 -92.0598
rradius 82.145
rwrist 4.01702
rhand -15.854 19.9996
rfingers 7.12502
rthumb 10.341 -9.72619
lclavicle -1.0138e-014 -1.59028e-015
lhumerus -35.2566 -11.9913 85.3141
lradius 107.576
lwrist -151.101
lhand -29.2731 9.29093
lfingers 7.12502
lthumb -2.61547 39.2546
rfemur -29.1567 -10.5438 26.7322
rtibia 78.9532
rfoot 11.772 2.47469
rtoes -6.11792
lfemur -25.7012 6.00165 -14.3159
ltibia 67.1634
lfoot 14.6038 -7.84556
ltoes -33.5407
